<svg width="17.500000" height="17.000000" viewBox="0 0 17.5 17" fill="none" xmlns="http://www.w3.org/2000/svg" xmlns:xlink="http://www.w3.org/1999/xlink">
	<desc>
			Created with Pixso.
	</desc>
	<defs/>
	<path id="Vector" d="M4.16669 6C3.79846 6 3.5 6.29846 3.5 6.66663C3.5 7.03491 3.79846 7.33337 4.16669 7.33337L4.2619 7.33337C4.63007 7.33337 4.92859 7.03491 4.92859 6.66663C4.92859 6.29846 4.63007 6 4.2619 6L4.16669 6ZM7.0238 6C6.65564 6 6.35712 6.29846 6.35712 6.66663C6.35712 7.03491 6.65564 7.33337 7.0238 7.33337L7.11902 7.33337C7.48724 7.33337 7.78571 7.03491 7.78571 6.66663C7.78571 6.29846 7.48724 6 7.11902 6L7.0238 6ZM9.88098 6C9.51276 6 9.21429 6.29846 9.21429 6.66663C9.21429 7.03491 9.51276 7.33337 9.88098 7.33337L9.9762 7.33337C10.3444 7.33337 10.6429 7.03491 10.6429 6.66663C10.6429 6.29846 10.3444 6 9.9762 6L9.88098 6ZM12.7381 6C12.3699 6 12.0714 6.29846 12.0714 6.66663C12.0714 7.03491 12.3699 7.33337 12.7381 7.33337L12.8333 7.33337C13.2015 7.33337 13.5 7.03491 13.5 6.66663C13.5 6.29846 13.2015 6 12.8333 6L12.7381 6ZM4.16669 8.66663C3.79846 8.66663 3.5 8.96509 3.5 9.33337C3.5 9.70154 3.79846 10 4.16669 10L4.2619 10C4.63007 10 4.92859 9.70154 4.92859 9.33337C4.92859 8.96509 4.63007 8.66663 4.2619 8.66663L4.16669 8.66663ZM7.0238 8.66663C6.65564 8.66663 6.35712 8.96509 6.35712 9.33337C6.35712 9.70154 6.65564 10 7.0238 10L7.11902 10C7.48724 10 7.78571 9.70154 7.78571 9.33337C7.78571 8.96509 7.48724 8.66663 7.11902 8.66663L7.0238 8.66663ZM9.88098 8.66663C9.51276 8.66663 9.21429 8.96509 9.21429 9.33337C9.21429 9.70154 9.51276 10 9.88098 10L9.9762 10C10.3444 10 10.6429 9.70154 10.6429 9.33337C10.6429 8.96509 10.3444 8.66663 9.9762 8.66663L9.88098 8.66663ZM12.7381 8.66663C12.3699 8.66663 12.0714 8.96509 12.0714 9.33337C12.0714 9.70154 12.3699 10 12.7381 10L12.8333 10C13.2015 10 13.5 9.70154 13.5 9.33337C13.5 8.96509 13.2015 8.66663 12.8333 8.66663L12.7381 8.66663ZM4.16669 11C3.79846 11 3.5 11.2985 3.5 11.6666C3.5 12.0349 3.79846 12.3334 4.16669 12.3334L4.2619 12.3334C4.63007 12.3334 4.92859 12.0349 4.92859 11.6666C4.92859 11.2985 4.63007 11 4.2619 11L4.16669 11ZM7.0238 11C6.65564 11 6.35712 11.2985 6.35712 11.6666C6.35712 12.0349 6.65564 12.3334 7.0238 12.3334L7.11902 12.3334C7.48724 12.3334 7.78571 12.0349 7.78571 11.6666C7.78571 11.2985 7.48724 11 7.11902 11L7.0238 11ZM9.88098 11C9.51276 11 9.21429 11.2985 9.21429 11.6666C9.21429 12.0349 9.51276 12.3334 9.88098 12.3334L9.9762 12.3334C10.3444 12.3334 10.6429 12.0349 10.6429 11.6666C10.6429 11.2985 10.3444 11 9.9762 11L9.88098 11Z" fill="#FFFFFF" fill-opacity="1.000000" fill-rule="evenodd"/>
	<path id="Vector" d="M15.7214 13.4445L13.0547 13.4445L13.0547 10.7778L13.9436 10.7778L13.9436 12.5557L15.7214 12.5557L15.7214 13.4445Z" fill="#FFFFFF" fill-opacity="1.000000" fill-rule="nonzero"/>
	<path id="Vector" d="M13.5 9.88892C15.1889 9.88892 16.6111 11.3112 16.6111 13C16.6111 14.6888 15.1889 16.1111 13.5 16.1111C11.8111 16.1111 10.3889 14.6888 10.3889 13C10.3889 11.3112 11.8111 9.88892 13.5 9.88892ZM13.5 9C11.2778 9 9.5 10.7778 9.5 13C9.5 15.2222 11.2778 17 13.5 17C15.7222 17 17.5 15.2222 17.5 13C17.5 10.7778 15.7222 9 13.5 9Z" fill="#FFFFFF" fill-opacity="1.000000" fill-rule="nonzero"/>
	<path id="Subtract" d="M1.18829 2.54565C1.30884 2.42517 1.47235 2.35742 1.64288 2.35742L15.3571 2.35742C15.5276 2.35742 15.6912 2.42517 15.8117 2.54565C15.9323 2.66626 16 2.82983 16 3.00024L16 8.66138C16.3653 8.87097 16.7011 9.12549 17 9.41736L17 3.00024C17 2.56458 16.8269 2.14673 16.5188 1.83862C16.2107 1.53052 15.7928 1.35742 15.3571 1.35742L1.64288 1.35742C1.20715 1.35742 0.789307 1.53052 0.481201 1.83862C0.173096 2.14673 0 2.56458 0 3.00024L0 14.4288C0 14.8645 0.173096 15.2825 0.481201 15.5906C0.789307 15.8986 1.20715 16.0717 1.64288 16.0717L9.54395 16.0717C9.30634 15.7653 9.10382 15.4299 8.9422 15.0717L1.64288 15.0717C1.47235 15.0717 1.30884 15.004 1.18829 14.8834C1.06775 14.7628 1 14.5994 1 14.4288L1 3.00024C1 2.82983 1.06775 2.66626 1.18829 2.54565Z" fill="#FFFFFF" fill-opacity="1.000000" fill-rule="nonzero"/>
	<rect id="Rectangle 268" x="3.500000" rx="0.500000" width="1.000000" height="4.000000" fill="#FFFFFF" fill-opacity="1.000000"/>
	<rect id="Rectangle 269" x="8.000000" rx="0.500000" width="1.000000" height="4.000000" fill="#FFFFFF" fill-opacity="1.000000"/>
	<rect id="Rectangle 270" x="12.500000" rx="0.500000" width="1.000000" height="4.000000" fill="#FFFFFF" fill-opacity="1.000000"/>
</svg>
