<svg width="6.948456" height="12.983398" viewBox="0 0 6.94846 12.9834" fill="none" xmlns="http://www.w3.org/2000/svg" xmlns:xlink="http://www.w3.org/1999/xlink">
	<desc>
			Created with Pixso.
	</desc>
	<defs/>
	<path id="facebook-f-brands (1)" d="M6.49347 7.30591L6.8537 4.95679L4.60072 4.95679L4.60072 3.43433C4.58513 3.25903 4.60913 3.08252 4.67096 2.91772C4.73279 2.75293 4.83084 2.60425 4.9579 2.48242C5.08495 2.3606 5.23775 2.2688 5.405 2.21411C5.57224 2.15918 5.74966 2.14282 5.92416 2.16577L6.94846 2.16577L6.94846 0.165039C6.34697 0.0683594 5.73923 0.0161133 5.1301 0.00830078C4.71098 -0.0236816 4.28998 0.0368652 3.89688 0.185791C3.50381 0.334717 3.14828 0.568115 2.8555 0.869873C2.56273 1.17139 2.33987 1.53369 2.20273 1.93091C2.06558 2.32837 2.0175 2.75098 2.0619 3.16895L2.0619 4.95825L0 4.95825L0 7.30762L2.06268 7.30762L2.06268 12.9834L4.60072 12.9834L4.60072 7.30591L6.49347 7.30591Z" fill="#000000" fill-opacity="1.000000" fill-rule="nonzero"/>
</svg>
