<svg width="10.654846" height="10.654785" viewBox="0 0 10.6548 10.6548" fill="none" xmlns="http://www.w3.org/2000/svg" xmlns:xlink="http://www.w3.org/1999/xlink">
	<desc>
			Created with Pixso.
	</desc>
	<defs/>
	<path id="Path 701" d="M5.32703 3.729C5.01096 3.729 4.70198 3.82275 4.43917 3.99829C4.17637 4.17383 3.97153 4.42334 3.85057 4.71558C3.72961 5.00757 3.69797 5.32886 3.75964 5.63892C3.8213 5.94873 3.9735 6.23364 4.197 6.45703C4.4205 6.68066 4.70526 6.83276 5.01526 6.89453C5.32526 6.95605 5.64659 6.92456 5.93861 6.80347C6.23062 6.68262 6.48022 6.47778 6.65582 6.21484C6.83142 5.95215 6.92515 5.64307 6.92515 5.32715C6.92515 5.11719 6.88381 4.90942 6.8035 4.71558C6.72318 4.52148 6.60547 4.34546 6.45707 4.19702C6.30867 4.04858 6.1325 3.93091 5.93861 3.85059C5.74471 3.77026 5.5369 3.729 5.32703 3.729ZM5.32703 2.66357C5.85383 2.66357 6.3688 2.81982 6.80681 3.1123C7.24482 3.40503 7.58621 3.82104 7.7878 4.30786C7.9894 4.79443 8.04214 5.33008 7.93938 5.84668C7.8366 6.36328 7.58292 6.83789 7.21043 7.21045C6.83793 7.58301 6.36333 7.83667 5.84666 7.93945C5.32999 8.04224 4.79445 7.9895 4.30775 7.78784C3.82106 7.58618 3.40508 7.24487 3.1124 6.80688C2.81973 6.3689 2.66352 5.85376 2.66352 5.32715C2.66352 4.97729 2.73241 4.63086 2.86626 4.30786C3.00012 3.98462 3.19631 3.69092 3.44364 3.4436C3.94315 2.94409 4.62063 2.66357 5.32703 2.66357ZM8.78961 2.53027C8.78961 2.66211 8.75056 2.79077 8.67739 2.90039C8.60422 3.00977 8.50023 3.09521 8.37856 3.14551C8.25688 3.19604 8.12299 3.20923 7.99382 3.18335C7.86465 3.15771 7.74601 3.09424 7.65289 3.00122C7.55975 2.90796 7.49634 2.78931 7.47064 2.66016C7.44495 2.53101 7.45814 2.39722 7.50854 2.27563C7.55894 2.15381 7.64429 2.0498 7.75378 1.97656C7.86329 1.90356 7.99203 1.8645 8.12373 1.8645C8.21117 1.8645 8.29776 1.88159 8.37856 1.91504C8.45934 1.94873 8.53275 1.99756 8.59457 2.05957C8.65641 2.12134 8.70546 2.19482 8.73892 2.27563C8.77238 2.3562 8.78961 2.44287 8.78961 2.53027ZM5.32703 1.06543C4.01077 1.06543 3.79396 1.06543 3.18073 1.09644C2.8538 1.10059 2.52995 1.1604 2.22295 1.27295C2.00721 1.35645 1.81127 1.48413 1.64768 1.64771C1.48409 1.81128 1.35645 2.00732 1.27291 2.2229C1.1603 2.53003 1.10061 2.85376 1.09637 3.18066C1.0685 3.76929 1.06541 3.97437 1.06541 5.32715C1.06541 6.64331 1.06541 6.86011 1.09637 7.47339C1.10101 7.80005 1.16069 8.12354 1.27291 8.43042C1.35603 8.64624 1.48343 8.84229 1.64693 9.00586C1.81042 9.16943 2.00638 9.29712 2.22218 9.38037C2.5294 9.49316 2.8535 9.55322 3.18073 9.55762C3.76919 9.58545 3.97437 9.58862 5.32703 9.58862C6.64331 9.58862 6.86011 9.58862 7.47334 9.55762C7.79999 9.55298 8.1235 9.49316 8.43034 9.3811C8.64754 9.30078 8.84408 9.1731 9.00563 9.00708C9.17225 8.84595 9.30035 8.64941 9.38039 8.43188C9.49266 8.12451 9.55235 7.80054 9.55692 7.47339C9.58479 6.88477 9.58789 6.67969 9.58789 5.32715C9.58789 4.01074 9.58789 3.79395 9.55692 3.18066C9.55249 2.85376 9.49281 2.53003 9.38039 2.2229C9.30009 2.00562 9.17202 1.80908 9.00563 1.64771C8.8446 1.48096 8.64793 1.35278 8.43034 1.27295C8.12335 1.1604 7.79951 1.10059 7.47256 1.09644C6.88489 1.0686 6.6797 1.06543 5.32703 1.06543ZM5.32703 0C6.77416 0 6.95302 0.00537109 7.52289 0.0317383C7.96478 0.0410156 8.40195 0.124756 8.81593 0.279541C9.17167 0.412598 9.49386 0.622314 9.75978 0.893555C10.0312 1.15991 10.2413 1.48218 10.3753 1.83813C10.53 2.2522 10.6137 2.68921 10.6231 3.1311C10.6479 3.69873 10.6548 3.87988 10.6548 5.32715C10.6548 6.77417 10.6494 6.95312 10.6231 7.52295C10.6137 7.96484 10.5299 8.40186 10.3753 8.81592C10.2387 9.17041 10.0293 9.49219 9.76076 9.76074C9.49218 10.0293 9.17033 10.2388 8.81593 10.3752C8.40189 10.53 7.96476 10.6138 7.52289 10.623C6.95535 10.6479 6.77416 10.6548 5.32703 10.6548C3.87991 10.6548 3.70105 10.6494 3.13118 10.623C2.68932 10.6138 2.2522 10.5298 1.83813 10.3752C1.48418 10.2388 1.16272 10.0295 0.894432 9.76123C0.626137 9.49292 0.416939 9.17139 0.280289 8.81738C0.125427 8.40356 0.0416565 7.96631 0.0325165 7.52441C0.00696564 6.95459 0 6.77417 0 5.32715C0 3.87988 0.00541687 3.70117 0.0317459 3.1311C0.0408783 2.68921 0.124649 2.2522 0.279518 1.83813C0.416161 1.48389 0.625435 1.16235 0.893867 0.893799C1.16231 0.625488 1.48396 0.41626 1.83813 0.279541C2.25211 0.124756 2.68929 0.0407715 3.13118 0.0317383C3.69873 0.00708008 3.87991 0 5.32703 0Z" fill="#000000" fill-opacity="1.000000" fill-rule="nonzero"/>
</svg>
