<svg width="183.063721" height="30.090088" viewBox="0 0 183.064 30.0901" fill="none" xmlns="http://www.w3.org/2000/svg" xmlns:xlink="http://www.w3.org/1999/xlink">
	<desc>
			Created with Pixso.
	</desc>
	<defs/>
	<path id="Pretty Stones" d="M6.96 0.27002C7.56 0.27002 8.38 0.230019 9.42 0.150019C10.42 0.0700188 11.16 0.0300198 11.64 0.0300198C14.34 0.0300198 16.3 0.54002 17.52 1.56002C18.74 2.58002 19.35 4.13002 19.35 6.21002C19.35 8.03002 18.93 9.59002 18.09 10.89C17.25 12.19 16.07 13.18 14.55 13.86C13.05 14.54 11.31 14.88 9.33 14.88C8.51 14.88 7.8 14.86 7.2 14.82L6.51 20.76L10.11 21.18L10.02 22.56L0 22.56L0.15 21.18L2.22 20.76L4.65 2.10002L2.55 1.74002L2.73 0.27002L6.96 0.27002ZM7.44 12.96C8 13.08 8.68 13.14 9.48 13.14C11.24 13.12 12.59 12.48 13.53 11.22C14.49 9.96002 14.98 8.23002 15 6.03002C15 3.17002 13.65 1.74002 10.95 1.74002C10.29 1.74002 9.61 1.80002 8.91 1.92002L7.44 12.96ZM25.8523 9.84002C26.2323 8.70002 26.8823 7.70002 27.8023 6.84002C28.7423 5.96002 29.7923 5.52002 30.9523 5.52002C31.3523 5.52002 31.6923 5.61002 31.9723 5.79002L31.1023 10.11C30.9823 10.01 30.7823 9.92002 30.5023 9.84002C30.2423 9.74002 29.9223 9.69002 29.5423 9.69002C28.8223 9.69002 28.1323 9.85002 27.4723 10.17C26.8123 10.47 26.3023 10.91 25.9423 11.49L24.4723 22.56L20.5723 22.56L22.4623 8.31002L20.9323 7.47002L21.1423 6.27002L25.4323 5.55002L26.1223 5.97002L25.9723 8.70002L25.8523 9.84002ZM45.3248 19.56C44.8048 20.38 43.9548 21.15 42.7748 21.87C41.6148 22.59 40.2648 22.95 38.7248 22.95C37.2848 22.95 36.0948 22.64 35.1548 22.02C34.2348 21.4 33.5648 20.59 33.1448 19.59C32.7248 18.59 32.5148 17.5 32.5148 16.32C32.5148 14.32 32.9148 12.5 33.7148 10.86C34.5348 9.20002 35.6448 7.89002 37.0448 6.93002C38.4448 5.97002 40.0048 5.49002 41.7248 5.49002C43.2648 5.49002 44.4048 5.85002 45.1448 6.57002C45.9048 7.27002 46.2848 8.19002 46.2848 9.33002C46.2848 10.77 45.7648 11.97 44.7248 12.93C43.6848 13.89 42.4348 14.61 40.9748 15.09C39.5148 15.55 38.1348 15.8 36.8348 15.84C36.7948 17.28 37.0248 18.44 37.5248 19.32C38.0448 20.2 38.8248 20.64 39.8648 20.64C41.5848 20.64 43.1448 19.84 44.5448 18.24L45.3248 19.56ZM40.8248 7.35002C39.6448 7.35002 38.7148 8.06002 38.0348 9.48002C37.3548 10.9 36.9548 12.48 36.8348 14.22C37.6148 14.18 38.4348 13.97 39.2948 13.59C40.1748 13.21 40.9048 12.68 41.4848 12C42.0848 11.3 42.3848 10.5 42.3848 9.60002C42.3848 8.88002 42.2448 8.33002 41.9648 7.95002C41.7048 7.55002 41.3248 7.35002 40.8248 7.35002ZM53.1687 17.07C53.0287 18.23 52.9587 18.93 52.9587 19.17C52.9587 19.63 53.0487 19.96 53.2287 20.16C53.4087 20.34 53.7187 20.43 54.1587 20.43C54.5587 20.43 55.0087 20.34 55.5087 20.16C56.0287 19.96 56.4587 19.72 56.7987 19.44L57.1287 20.55C56.6087 21.13 55.8687 21.66 54.9087 22.14C53.9487 22.62 52.8687 22.86 51.6687 22.86C50.8287 22.86 50.1587 22.65 49.6587 22.23C49.1787 21.79 48.9387 21.1 48.9387 20.16C48.9387 19.76 49.0387 18.82 49.2387 17.34L50.4987 8.04002L48.6987 8.04002L49.0287 6.60002L50.8287 5.97002C51.4287 5.41002 52.1387 4.03002 52.9587 1.83002L55.2087 1.83002L54.6987 5.91002L58.2987 5.91002L57.9987 8.04002L54.3987 8.04002L53.1687 17.07ZM63.8327 17.07C63.6927 18.23 63.6227 18.93 63.6227 19.17C63.6227 19.63 63.7127 19.96 63.8927 20.16C64.0727 20.34 64.3827 20.43 64.8227 20.43C65.2227 20.43 65.6727 20.34 66.1727 20.16C66.6927 19.96 67.1227 19.72 67.4627 19.44L67.7927 20.55C67.2727 21.13 66.5327 21.66 65.5727 22.14C64.6127 22.62 63.5327 22.86 62.3327 22.86C61.4927 22.86 60.8227 22.65 60.3227 22.23C59.8427 21.79 59.6027 21.1 59.6027 20.16C59.6027 19.76 59.7027 18.82 59.9027 17.34L61.1627 8.04002L59.3627 8.04002L59.6927 6.60002L61.4927 5.97002C62.0927 5.41002 62.8027 4.03002 63.6227 1.83002L65.8727 1.83002L65.3627 5.91002L68.9627 5.91002L68.6627 8.04002L65.0627 8.04002L63.8327 17.07ZM70.5968 8.76002C70.5168 8.42002 70.4268 8.19002 70.3268 8.07002C70.2268 7.93002 70.0968 7.86002 69.9368 7.86002C69.6768 7.86002 69.3768 8.00002 69.0368 8.28002L68.6168 7.26002C68.8568 6.94002 69.3068 6.58002 69.9668 6.18002C70.6468 5.76002 71.3668 5.55002 72.1268 5.55002C72.9068 5.55002 73.4868 5.72002 73.8668 6.06002C74.2468 6.38002 74.4868 6.88002 74.5868 7.56002L76.3268 18.96L76.7468 22.26L78.1568 19.41C79.0168 17.61 79.6668 16.03 80.1068 14.67C80.5668 13.31 80.7968 12.01 80.7968 10.77C80.7968 10.39 80.7668 10.07 80.7068 9.81002C80.6468 9.55002 80.5568 9.25002 80.4368 8.91002C80.2168 8.35002 80.1068 7.82002 80.1068 7.32002C80.1068 6.78002 80.2668 6.35002 80.5868 6.03002C80.9268 5.71002 81.4068 5.55002 82.0268 5.55002C82.7468 5.55002 83.3068 5.83002 83.7068 6.39002C84.1268 6.95002 84.3368 7.63002 84.3368 8.43002C84.3368 9.85002 84.1068 11.2 83.6468 12.48C83.1868 13.74 82.4868 15.31 81.5468 17.19C80.8868 18.63 80.0268 20.23 78.9668 21.99C77.9268 23.73 77.0068 25.2 76.2068 26.4C75.3868 27.7 74.5068 28.64 73.5668 29.22C72.6468 29.8 71.5468 30.09 70.2668 30.09C69.7468 30.09 69.1768 30.02 68.5568 29.88C67.9568 29.76 67.5468 29.63 67.3268 29.49L68.2568 26.88C68.4768 27.08 68.8468 27.26 69.3668 27.42C69.8868 27.58 70.3968 27.66 70.8968 27.66C71.7968 27.66 72.6568 27.34 73.4768 26.7C74.3168 26.08 75.1468 25.06 75.9668 23.64L73.8068 23.64L70.5968 8.76002ZM104.361 2.43002C103.741 1.93002 102.871 1.68002 101.751 1.68002C100.651 1.68002 99.7513 1.95002 99.0513 2.49002C98.3713 3.01002 98.0313 3.72002 98.0313 4.62002C98.0313 5.68002 98.3513 6.58002 98.9913 7.32002C99.6513 8.04002 100.731 8.87002 102.231 9.81002C103.671 10.71 104.801 11.65 105.621 12.63C106.461 13.61 106.881 14.79 106.881 16.17C106.901 17.43 106.591 18.57 105.951 19.59C105.311 20.61 104.361 21.42 103.101 22.02C101.861 22.6 100.371 22.89 98.6313 22.89C97.2113 22.89 95.8513 22.74 94.5513 22.44C93.2513 22.12 92.4013 21.81 92.0013 21.51L92.7813 17.04L95.2713 17.04L95.4213 20.25C95.7813 20.53 96.2313 20.75 96.7713 20.91C97.3313 21.07 97.9313 21.15 98.5713 21.15C99.9313 21.15 100.991 20.85 101.751 20.25C102.531 19.63 102.921 18.8 102.921 17.76C102.921 16.8 102.621 15.98 102.021 15.3C101.421 14.6 100.441 13.82 99.0813 12.96C97.5813 12.02 96.3913 11.03 95.5113 9.99002C94.6513 8.95002 94.2113 7.73002 94.1913 6.33002C94.1913 5.03002 94.5313 3.90002 95.2113 2.94002C95.8913 1.98002 96.8213 1.25002 98.0013 0.750019C99.2013 0.250019 100.551 1.90735e-05 102.051 1.90735e-05C104.591 1.90735e-05 106.491 0.380018 107.751 1.14002L107.001 5.34002L104.721 5.34002L104.361 2.43002ZM114.223 17.07C114.083 18.23 114.013 18.93 114.013 19.17C114.013 19.63 114.103 19.96 114.283 20.16C114.463 20.34 114.773 20.43 115.213 20.43C115.613 20.43 116.063 20.34 116.563 20.16C117.083 19.96 117.513 19.72 117.853 19.44L118.183 20.55C117.663 21.13 116.923 21.66 115.963 22.14C115.003 22.62 113.923 22.86 112.723 22.86C111.883 22.86 111.213 22.65 110.713 22.23C110.233 21.79 109.993 21.1 109.993 20.16C109.993 19.76 110.093 18.82 110.293 17.34L111.553 8.04002L109.753 8.04002L110.083 6.60002L111.883 5.97002C112.483 5.41002 113.193 4.03002 114.013 1.83002L116.263 1.83002L115.753 5.91002L119.353 5.91002L119.053 8.04002L115.453 8.04002L114.223 17.07ZM129.027 5.49002C131.107 5.49002 132.697 6.10002 133.797 7.32002C134.897 8.52002 135.447 10.25 135.447 12.51C135.447 14.37 135.067 16.1 134.307 17.7C133.547 19.3 132.477 20.58 131.097 21.54C129.717 22.48 128.137 22.95 126.357 22.95C124.277 22.95 122.687 22.34 121.587 21.12C120.507 19.88 119.967 18.12 119.967 15.84C119.967 13.96 120.337 12.23 121.077 10.65C121.837 9.07002 122.907 7.82002 124.287 6.90002C125.667 5.96002 127.247 5.49002 129.027 5.49002ZM128.517 7.38002C127.597 7.38002 126.817 7.80002 126.177 8.64002C125.537 9.46002 125.057 10.51 124.737 11.79C124.437 13.07 124.287 14.38 124.287 15.72C124.287 17.62 124.497 19.01 124.917 19.89C125.357 20.77 126.037 21.21 126.957 21.21C127.857 21.21 128.617 20.79 129.237 19.95C129.857 19.11 130.317 18.04 130.617 16.74C130.917 15.44 131.067 14.11 131.067 12.75C131.067 10.85 130.857 9.48002 130.437 8.64002C130.037 7.80002 129.397 7.38002 128.517 7.38002ZM143.693 9.15002C144.433 8.05002 145.313 7.17002 146.333 6.51002C147.353 5.85002 148.423 5.52002 149.543 5.52002C152.023 5.52002 153.263 6.99002 153.263 9.93002C153.263 10.71 153.013 12.45 152.513 15.15C152.433 15.67 152.363 16.07 152.303 16.35C152.023 17.93 151.873 19.07 151.853 19.77L151.853 19.89C151.853 20.39 152.013 20.64 152.333 20.64C152.513 20.64 152.703 20.59 152.903 20.49C153.103 20.39 153.363 20.21 153.683 19.95L154.103 20.88C153.803 21.3 153.313 21.74 152.633 22.2C151.953 22.64 151.123 22.86 150.143 22.86C149.203 22.86 148.553 22.66 148.193 22.26C147.833 21.84 147.653 21.29 147.653 20.61C147.673 20.01 147.863 18.82 148.223 17.04L148.403 16.02C148.443 15.84 148.523 15.36 148.643 14.58C148.783 13.8 148.893 13.06 148.973 12.36C149.053 11.64 149.093 11.02 149.093 10.5C149.093 9.58002 148.983 8.95002 148.763 8.61002C148.563 8.27002 148.193 8.10002 147.653 8.10002C146.993 8.10002 146.253 8.47002 145.433 9.21002C144.633 9.95002 143.943 10.84 143.363 11.88L141.923 22.56L137.993 22.56L139.913 8.28002L138.383 7.47002L138.623 6.24002L143.303 5.52002L143.993 5.85002L143.693 9.15002ZM169.28 19.56C168.76 20.38 167.91 21.15 166.73 21.87C165.57 22.59 164.22 22.95 162.68 22.95C161.24 22.95 160.05 22.64 159.11 22.02C158.19 21.4 157.52 20.59 157.1 19.59C156.68 18.59 156.47 17.5 156.47 16.32C156.47 14.32 156.87 12.5 157.67 10.86C158.49 9.20002 159.6 7.89002 161 6.93002C162.4 5.97002 163.96 5.49002 165.68 5.49002C167.22 5.49002 168.36 5.85002 169.1 6.57002C169.86 7.27002 170.24 8.19002 170.24 9.33002C170.24 10.77 169.72 11.97 168.68 12.93C167.64 13.89 166.39 14.61 164.93 15.09C163.47 15.55 162.09 15.8 160.79 15.84C160.75 17.28 160.98 18.44 161.48 19.32C162 20.2 162.78 20.64 163.82 20.64C165.54 20.64 167.1 19.84 168.5 18.24L169.28 19.56ZM164.78 7.35002C163.6 7.35002 162.67 8.06002 161.99 9.48002C161.31 10.9 160.91 12.48 160.79 14.22C161.57 14.18 162.39 13.97 163.25 13.59C164.13 13.21 164.86 12.68 165.44 12C166.04 11.3 166.34 10.5 166.34 9.60002C166.34 8.88002 166.2 8.33002 165.92 7.95002C165.66 7.55002 165.28 7.35002 164.78 7.35002ZM182.494 8.76002C182.254 8.48002 181.854 8.19002 181.294 7.89002C180.754 7.59002 180.124 7.44002 179.404 7.44002C178.604 7.44002 177.954 7.62002 177.454 7.98002C176.974 8.32002 176.734 8.83002 176.734 9.51002C176.734 10.11 176.934 10.65 177.334 11.13C177.754 11.59 178.424 12.15 179.344 12.81C180.364 13.57 181.144 14.31 181.684 15.03C182.224 15.73 182.494 16.63 182.494 17.73C182.494 18.83 182.194 19.77 181.594 20.55C180.994 21.31 180.194 21.89 179.194 22.29C178.194 22.67 177.094 22.86 175.894 22.86C174.994 22.86 174.074 22.76 173.134 22.56C172.194 22.34 171.584 22.11 171.304 21.87L171.904 19.32C172.324 19.68 172.894 20.02 173.614 20.34C174.334 20.66 175.084 20.82 175.864 20.82C176.604 20.82 177.234 20.65 177.754 20.31C178.294 19.97 178.564 19.44 178.564 18.72C178.564 18.1 178.334 17.54 177.874 17.04C177.414 16.54 176.724 15.97 175.804 15.33C174.964 14.75 174.254 14.07 173.674 13.29C173.114 12.49 172.834 11.53 172.834 10.41C172.834 9.45002 173.104 8.60002 173.644 7.86002C174.204 7.12002 174.964 6.55002 175.924 6.15002C176.904 5.73002 178.024 5.52002 179.284 5.52002C180.024 5.52002 180.774 5.58002 181.534 5.70002C182.294 5.82002 182.804 5.95002 183.064 6.09002L182.494 8.76002Z" fill="#FFFFFF" fill-opacity="1.000000" fill-rule="evenodd"/>
</svg>
