<svg width="57.000000" height="57.000000" viewBox="0 0 57 57" fill="none" xmlns="http://www.w3.org/2000/svg" xmlns:xlink="http://www.w3.org/1999/xlink">
	<desc>
			Created with Pixso.
	</desc>
	<defs>
		<clipPath id="clip1_306">
			<rect id="14806711761548347816 1" width="57.000000" height="57.000000" fill="white" fill-opacity="0"/>
		</clipPath>
	</defs>
	<rect id="14806711761548347816 1" width="57.000000" height="57.000000" fill="#FFFFFF" fill-opacity="0"/>
	<g clip-path="url(#clip1_306)">
		<path id="Vector" d="M49.9144 22.6252C47.5873 17.8854 43.7533 14.0513 39.0134 11.7242L39.002 11.713C39.002 11.713 40.8241 9.83435 41.4578 9.24585C41.6696 9.03223 41.7877 8.74316 41.786 8.44238C41.7597 8.18335 41.6703 7.93469 41.5257 7.71814L35.4372 0.407349C35.2218 0.148804 34.9024 -0.000610352 34.5658 0L22.4115 0C22.0788 0.0159912 21.7657 0.162354 21.5401 0.407349L15.463 7.69543C15.3087 7.9071 15.2184 8.15845 15.2027 8.4198C15.2212 8.71631 15.3365 8.99854 15.5309 9.22327L17.9866 11.7242C6.15976 17.5306 1.27922 31.8252 7.08563 43.652C12.892 55.4789 27.1865 60.3594 39.0134 54.553C50.8402 48.7467 55.7208 34.4521 49.9144 22.6252ZM35.0411 3.45166L38.2438 7.27673L33.8529 7.27673L35.0411 3.45166ZM37.9609 9.54016L30.9557 16.6698L33.1625 9.54016L37.9609 9.54016ZM27.6852 21.5813C27.9022 21.7894 28.1882 21.9103 28.4887 21.9208C28.7857 21.8959 29.0673 21.777 29.2922 21.5813L33.3097 17.4958C41.9191 20.1616 46.7375 29.302 44.0719 37.9114C41.4062 46.5209 32.2658 51.3394 23.6564 48.6736C15.0469 46.0079 10.2285 36.8676 12.8941 28.2581C14.4866 23.115 18.5133 19.0884 23.6564 17.4958L27.6852 21.5813ZM26.2253 9.54016L30.752 9.54016L28.4887 16.9526L26.2253 9.54016ZM33.0154 2.25208L32.0195 5.45471L30.356 2.26343L33.0154 2.25208ZM30.4239 7.27673L26.5309 7.27673L28.4887 3.5874L30.4239 7.27673ZM26.6214 2.26343L24.9352 5.46606L23.9619 2.26343L26.6214 2.26343ZM26.0329 16.681L20.7253 11.2716L19.0278 9.55139L23.8261 9.55139L26.0329 16.681ZM21.9362 3.45166L23.0679 7.27673L18.7448 7.27673L21.9362 3.45166ZM28.4887 54.7058C16.5696 54.7032 6.90952 45.0388 6.91205 33.1199C6.91389 24.6194 11.9055 16.9117 19.6615 13.4331L21.9249 15.6965C12.3285 19.334 7.49785 30.0624 11.1354 39.6588C14.7729 49.2552 25.5013 54.0859 35.0977 50.4484C44.6942 46.8108 49.5248 36.0824 45.8872 26.486C44.0013 21.5107 40.0731 17.5825 35.0977 15.6965L37.3611 13.4331C48.2363 18.3108 53.0984 31.0811 48.2208 41.9563C44.7353 49.7273 37.0056 54.7218 28.4887 54.7058Z" fill="#FFFFFF" fill-opacity="1.000000" fill-rule="nonzero"/>
	</g>
</svg>
