<svg width="10.856155" height="8.828857" viewBox="0 0 10.8562 8.82886" fill="none" xmlns="http://www.w3.org/2000/svg" xmlns:xlink="http://www.w3.org/1999/xlink">
	<desc>
			Created with Pixso.
	</desc>
	<defs/>
	<path id="Path 703" d="M10.8562 1.04614C10.4494 1.22632 10.018 1.34448 9.57628 1.39697C10.0431 1.11841 10.3924 0.679443 10.5588 0.162109C10.1217 0.422119 9.64326 0.605469 9.14423 0.704102C8.80876 0.346191 8.36458 0.109131 7.8806 0.029541C7.39662 -0.0500488 6.8999 0.0322266 6.46753 0.263916C6.03514 0.495361 5.69127 0.863281 5.48926 1.31006C5.28723 1.75708 5.23839 2.2583 5.35027 2.73584C4.46448 2.69116 3.59796 2.46094 2.80695 2.05981C2.01593 1.65869 1.31812 1.0957 0.758789 0.407471C0.473892 0.897949 0.386566 1.47876 0.514572 2.03125C0.642593 2.58398 0.976334 3.06689 1.44791 3.38232C1.09499 3.37061 0.749924 3.27515 0.441345 3.10352L0.441345 3.13135C0.440872 3.64526 0.61795 4.14355 0.942612 4.54175C1.26726 4.94019 1.71956 5.21411 2.22296 5.31714C1.8947 5.40625 1.55051 5.41943 1.21638 5.35596C1.35834 5.79883 1.63533 6.18652 2.00856 6.46411C2.38179 6.7417 2.83253 6.89575 3.29765 6.90454C2.83559 7.26733 2.30652 7.53564 1.74068 7.69409C1.17485 7.85254 0.583344 7.89771 0 7.82739C1.01839 8.48218 2.20384 8.82983 3.41457 8.82861C4.24902 8.83423 5.07629 8.67407 5.8483 8.35742C6.62029 8.04053 7.32159 7.57349 7.91144 6.98315C8.5013 6.39282 8.96791 5.69116 9.28415 4.91895C9.6004 4.14673 9.75996 3.31934 9.75359 2.48486C9.75359 2.38892 9.75359 2.29199 9.74661 2.19678C10.1817 1.88232 10.5574 1.49316 10.8562 1.04712L10.8562 1.04614Z" fill="#000000" fill-opacity="1.000000" fill-rule="nonzero"/>
</svg>
